HIERARCHY
ROOT Hips
{
	OFFSET -14.64140 90.27770 -84.91600
	CHANNELS 6 Xposition Yposition Zposition Zrotation Xrotation Yrotation
	JOINT Spine
	{
		OFFSET 0.00000 13.20850 -1.60436
		CHANNELS 3 Zrotation Xrotation Yrotation
		JOINT Spine1
		{
			OFFSET 0.00000 8.61716 0.00000
			CHANNELS 3 Zrotation Xrotation Yrotation
			JOINT Spine2
			{
				OFFSET 0.00000 8.61717 0.00000
				CHANNELS 3 Zrotation Xrotation Yrotation
				JOINT Spine3
				{
					OFFSET 0.00000 8.61717 0.00000
					CHANNELS 3 Zrotation Xrotation Yrotation
					JOINT Neck
					{
						OFFSET 0.00000 11.07920 1.10792
						CHANNELS 3 Zrotation Xrotation Yrotation
						JOINT Neck1
						{
							OFFSET 0.00000 7.08032 0.00000
							CHANNELS 3 Zrotation Xrotation Yrotation
							JOINT Head
							{
								OFFSET 0.00000 7.08031 0.00000
								CHANNELS 3 Zrotation Xrotation Yrotation
								End site
								{
									OFFSET 0.00000 0.00000 0.00000
								}
							}
						}
					}
					JOINT RightShoulder
					{
						OFFSET -0.01000 7.91373 5.19711
						CHANNELS 3 Zrotation Xrotation Yrotation
						JOINT RightArm
						{
							OFFSET -18.41580 0.00000 0.00000
							CHANNELS 3 Zrotation Xrotation Yrotation
							JOINT RightForeArm
							{
								OFFSET -29.11090 0.00000 0.00000
								CHANNELS 3 Zrotation Xrotation Yrotation
								JOINT RightHand
								{
									OFFSET -24.65040 0.00000 0.00000
									CHANNELS 3 Zrotation Xrotation Yrotation
									JOINT RightHandThumb1
									{
										OFFSET -5.35114 -0.85590 3.97906
										CHANNELS 3 Zrotation Xrotation Yrotation
										JOINT RightHandThumb2
										{
											OFFSET -4.52789 0.00000 0.00000
											CHANNELS 3 Zrotation Xrotation Yrotation
											JOINT RightHandThumb3
											{
												OFFSET -2.46976 0.00000 0.00000
												CHANNELS 3 Zrotation Xrotation Yrotation
												End site
												{
													OFFSET 0.00000 0.00000 0.00000
												}
											}
										}
									}
									JOINT RightHandIndex1
									{
										OFFSET -14.26970 0.00000 2.88139
										CHANNELS 3 Zrotation Xrotation Yrotation
										JOINT RightHandIndex2
										{
											OFFSET -5.48836 0.00000 0.00000
											CHANNELS 3 Zrotation Xrotation Yrotation
											JOINT RightHandIndex3
											{
												OFFSET -3.01859 0.00000 0.00000
												CHANNELS 3 Zrotation Xrotation Yrotation
												End site
												{
													OFFSET 0.00000 0.00000 0.00000
												}
											}
										}
									}
									JOINT RightHandMiddle1
									{
										OFFSET -14.26970 0.00000 -0.09147
										CHANNELS 3 Zrotation Xrotation Yrotation
										JOINT RightHandMiddle2
										{
											OFFSET -6.17441 0.00000 0.00000
											CHANNELS 3 Zrotation Xrotation Yrotation
											JOINT RightHandMiddle3
											{
												OFFSET -3.56743 0.00000 0.00000
												CHANNELS 3 Zrotation Xrotation Yrotation
												End site
												{
													OFFSET 0.00000 0.00000 0.00000
												}
											}
										}
									}
									JOINT RightHandRing1
									{
										OFFSET -12.69180 0.00000 -3.06433
										CHANNELS 3 Zrotation Xrotation Yrotation
										JOINT RightHandRing2
										{
											OFFSET -5.62556 0.00000 0.00000
											CHANNELS 3 Zrotation Xrotation Yrotation
											JOINT RightHandRing3
											{
												OFFSET -3.56744 0.00000 0.00000
												CHANNELS 3 Zrotation Xrotation Yrotation
												End site
												{
													OFFSET 0.00000 0.00000 0.00000
												}
											}
										}
									}
									JOINT RightHandPinky1
									{
										OFFSET -11.11390 0.00000 -6.03719
										CHANNELS 3 Zrotation Xrotation Yrotation
										JOINT RightHandPinky2
										{
											OFFSET -4.52789 0.00000 0.00000
											CHANNELS 3 Zrotation Xrotation Yrotation
											JOINT RightHandPinky3
											{
												OFFSET -2.46976 0.00000 0.00000
												CHANNELS 3 Zrotation Xrotation Yrotation
												End site
												{
													OFFSET 0.00000 0.00000 0.00000
												}
											}
										}
									}
								}
							}
						}
					}
					JOINT LeftShoulder
					{
						OFFSET 0.01000 7.91373 5.19711
						CHANNELS 3 Zrotation Xrotation Yrotation
						JOINT LeftArm
						{
							OFFSET 18.41580 0.00000 0.00000
							CHANNELS 3 Zrotation Xrotation Yrotation
							JOINT LeftForeArm
							{
								OFFSET 29.11090 0.00000 0.00000
								CHANNELS 3 Zrotation Xrotation Yrotation
								JOINT LeftHand
								{
									OFFSET 24.65040 0.00000 0.00000
									CHANNELS 3 Zrotation Xrotation Yrotation
									JOINT LeftHandThumb1
									{
										OFFSET 5.35114 -0.85590 3.97906
										CHANNELS 3 Zrotation Xrotation Yrotation
										JOINT LeftHandThumb2
										{
											OFFSET 4.52789 0.00000 0.00000
											CHANNELS 3 Zrotation Xrotation Yrotation
											JOINT LeftHandThumb3
											{
												OFFSET 2.46977 0.00000 0.00000
												CHANNELS 3 Zrotation Xrotation Yrotation
												End site
												{
													OFFSET 0.00000 0.00000 0.00000
												}
											}
										}
									}
									JOINT LeftHandIndex1
									{
										OFFSET 14.26970 0.00000 2.88139
										CHANNELS 3 Zrotation Xrotation Yrotation
										JOINT LeftHandIndex2
										{
											OFFSET 5.48836 0.00000 0.00000
											CHANNELS 3 Zrotation Xrotation Yrotation
											JOINT LeftHandIndex3
											{
												OFFSET 3.01859 0.00000 0.00000
												CHANNELS 3 Zrotation Xrotation Yrotation
												End site
												{
													OFFSET 0.00000 0.00000 0.00000
												}
											}
										}
									}
									JOINT LeftHandMiddle1
									{
										OFFSET 14.26970 0.00000 -0.09147
										CHANNELS 3 Zrotation Xrotation Yrotation
										JOINT LeftHandMiddle2
										{
											OFFSET 6.17440 0.00000 0.00000
											CHANNELS 3 Zrotation Xrotation Yrotation
											JOINT LeftHandMiddle3
											{
												OFFSET 3.56744 0.00000 0.00000
												CHANNELS 3 Zrotation Xrotation Yrotation
												End site
												{
													OFFSET 0.00000 0.00000 0.00000
												}
											}
										}
									}
									JOINT LeftHandRing1
									{
										OFFSET 12.69180 0.00000 -3.06433
										CHANNELS 3 Zrotation Xrotation Yrotation
										JOINT LeftHandRing2
										{
											OFFSET 5.62556 0.00000 0.00000
											CHANNELS 3 Zrotation Xrotation Yrotation
											JOINT LeftHandRing3
											{
												OFFSET 3.56744 0.00000 0.00000
												CHANNELS 3 Zrotation Xrotation Yrotation
												End site
												{
													OFFSET 0.00000 0.00000 0.00000
												}
											}
										}
									}
									JOINT LeftHandPinky1
									{
										OFFSET 11.11390 0.00000 -6.03719
										CHANNELS 3 Zrotation Xrotation Yrotation
										JOINT LeftHandPinky2
										{
											OFFSET 4.52789 0.00000 0.00000
											CHANNELS 3 Zrotation Xrotation Yrotation
											JOINT LeftHandPinky3
											{
												OFFSET 2.46976 0.00000 0.00000
												CHANNELS 3 Zrotation Xrotation Yrotation
												End site
												{
													OFFSET 0.00000 0.00000 0.00000
												}
											}
										}
									}
								}
							}
						}
					}
					JOINT pCube4
					{
						OFFSET 0.00000 10.91090 1.10792
						CHANNELS 3 Zrotation Xrotation Yrotation
						End site
						{
							OFFSET 0.00000 0.00000 0.00000
						}
					}
				}
			}
		}
	}
	JOINT RightUpLeg
	{
		OFFSET -9.98441 0.00000 0.00000
		CHANNELS 3 Zrotation Xrotation Yrotation
		JOINT RightLeg
		{
			OFFSET 0.00000 -42.11790 0.00000
			CHANNELS 3 Zrotation Xrotation Yrotation
			JOINT RightFoot
			{
				OFFSET 0.00000 -45.00020 -0.00001
				CHANNELS 3 Zrotation Xrotation Yrotation
				JOINT RightForeFoot
				{
					OFFSET 0.00000 -3.74820 0.00000
					CHANNELS 3 Zrotation Xrotation Yrotation
					JOINT RightToeBase
					{
						OFFSET 0.00000 0.06325 14.43120
						CHANNELS 3 Zrotation Xrotation Yrotation
						End site
						{
							OFFSET 0.00000 0.00000 0.00000
						}
					}
				}
			}
		}
	}
	JOINT LeftUpLeg
	{
		OFFSET 9.98441 0.00000 0.00000
		CHANNELS 3 Zrotation Xrotation Yrotation
		JOINT LeftLeg
		{
			OFFSET 0.00000 -42.11800 0.00000
			CHANNELS 3 Zrotation Xrotation Yrotation
			JOINT LeftFoot
			{
				OFFSET 0.00000 -45.00070 0.00000
				CHANNELS 3 Zrotation Xrotation Yrotation
				JOINT LeftForeFoot
				{
					OFFSET 0.00000 -3.74824 0.00000
					CHANNELS 3 Zrotation Xrotation Yrotation
					JOINT LeftToeBase
					{
						OFFSET 0.00000 0.06325 14.43110
						CHANNELS 3 Zrotation Xrotation Yrotation
						End site
						{
							OFFSET 0.00000 0.00000 0.00000
						}
					}
				}
			}
		}
	}
}
MOTION
Frames: 4
Frame Time: 0.050000
0.04347680047738522 0.020341449559256028 -0.043921432639183994 0.00928915599987383 0.0147519414571224 -0.006582573861200804 -4.650205018138619 8.048875224602032 -0.5698161347548178 -0.7660963104996786 2.9213212241894255 0.34050612420768256 -1.046757934299303 0.19689190367467835 -1.2444995818999787 -0.725397081029328 0.2296433010131783 -0.996859928291771 -0.11244010793332815 7.398124003410983 0.08182291756113785 -0.13764928400288698 -1.324674038540353 -3.192766148375729 -0.10455516946562793 -15.376174987303083 -0.22329426819519482 4.153594075134194 -0.14992213530382836 -9.853999476203727 58.71033318483458 -12.870100673157108 25.71375684434536 29.304980590889706 9.283307574089774 101.4393803437084 24.866591689764107 -0.04292657585514499 -10.763143845235092 4.492542768659922 -0.09951068418245569 -1.5884571515546273 -0.00248538875017563 0.012993243065955028 -56.2341554414315 -0.02288608473891981 0.021422310496798592 -56.20885290450077 -38.768319349007434 0.020863408571490983 -0.028829639029058544 0.008038057949222367 -0.044829585531567115 -0.024730406693939715 0.008190665731631196 -0.018445619457698455 0.03742059903431287 -36.684398550778155 -0.02183972468439411 -0.027185981688938578 -0.024450416512942056 0.0018000511940328276 -0.002046316807310969 -0.012651887385662176 -0.001532494445841617 -0.023886596767539094 -19.791304521868316 -0.034822813926496055 -0.03829634412863028 -0.043715502430624706 0.0474235000017929 -0.01577585740892324 -0.014382183341791798 0.007745897023069212 0.020243713087683697 24.043053910298703 0.012092298172655355 -0.012632030441007124 28.894820515153892 0.02767426624868345 0.0005607303332963401 28.844518855796537 0.0036369892276185596 0.03199181348027711 -3.5110026542716324 -0.10420631637517445 8.594419987680986 -60.6190508312687 18.712591953597816 -20.597429133984917 -44.69546745042107 9.627888642416282 -100.19642281062188 -12.626497099483776 2.852041882347119 -1.7439477258320786 -0.4364558379210972 0.11146070183545662 -8.110364732629558 0.015806013255528186 0.049813117519657876 44.587935884458275 0.002486418015188236 -0.04236743680085367 44.604754870756935 12.432825728818258 0.039122004793567894 -0.00901105349988493 -0.03528628934027339 -0.011722313520834327 0.036442408927891294 0.04478328874948443 0.008146073347731883 -0.010825547519061127 11.08633256471824 0.03333344336190041 0.04450180894313786 -0.02019134983471948 -0.016920507945551094 -0.01043439430377964 -0.04788220628292019 -0.0464994484747091 -0.030928104710309563 4.730383222278534 0.011945923696855956 -0.02080856052450553 -0.03197996738648886 -0.003093687970438213 -0.004422476781694565 0.023725108836411223 0.012087945346183357 0.04850517277164833 -5.627389644293827 -0.03353050609914527 0.015146487078498555 -6.756222216621646 0.03319206872283268 0.03405607839457256 -6.751160785090836 0.03088307387425364 0.01612730391979669 -0.03830844365210801 -0.015570310656026196 0.025425367172602433 8.08595545336532 3.5198267807817456 -19.249786415212082 0.006016248180443742 10.398497042288627 0.02936717313420914 -5.636825162266306 -15.612533103065827 3.1810299587986015 0.0493985121462777 0.007045709654232709 0.02561856505120407 0.022026555551302084 4.691212269220705 0.049540984275823846 12.506407069491948 -8.268215808495569 6.927446595878614 0.03323373593888809 46.40663292490903 0.04962769936074261 -4.276797842278105 -14.725619295099388 -3.8659172382873725 -0.027591403072030812 -0.03065641968827822 0.04189834479168584 0.04081181926512804 -10.792269437647583 0.022379466358034283 
0.010366904079152448 0.008401772840080998 -0.04132080371577755 0.004405383048370767 -0.008839303897593749 -0.04476837368469081 -4.500980735973765 7.913837233700265 -0.55511216896362 -0.7222979168655946 2.9528646229806244 0.40189864977811735 -0.9654953127696116 0.16947167458189422 -1.4868219882026183 -0.6249995478685588 0.26477533657773317 -1.0730488340220312 -0.07105681449359216 7.572019993709273 -0.08955089840811038 -0.11157845088268244 -1.2958572603405532 -3.501063840929575 -0.01192004984497537 -15.317601151941796 -0.19283697785625958 3.850255257654438 -0.10433027187061068 -9.773743089875289 56.458727023423535 -13.767336905312902 28.112657429137922 29.778584291746053 9.74031227347356 100.65101894029205 25.1309997652259 -0.02458266921568772 -11.115074010642916 4.562129315290243 -0.08173945908833809 -1.6241517460386168 -0.03790093582280025 0.02196831482929915 -56.242751597057485 0.02141148294363111 0.0008943577089970288 -56.1902404523057 -38.78475528467738 0.01649248214451879 -0.019060648508432497 -0.018542818077509543 -0.014361324801249395 0.025004115608952784 -0.001671237083487261 -0.012148593399978824 0.02194067908871059 -36.679293618691325 0.015411257531564136 0.019221400530785054 0.025150327084142488 0.0022113546285439777 -0.005617767520063777 0.029808035410874973 0.018054486459380167 0.011986589315021692 -19.769525179131286 -0.017203312395687165 0.03800079605916782 -0.015283764465470386 -0.033954219975689336 -0.022272662786511552 -0.028271411693743368 -0.006955542449277126 -0.043632078720807155 24.06506137209073 -0.013266336641527068 -0.013632967884588017 28.877193516323878 0.03969199198365629 0.029622317277568536 28.855582675260536 0.03793402021122543 -0.015445963911533678 -3.282911056946553 -0.054250104668818785 8.318091737048759 -58.66211650547216 19.934321146839807 -22.97861584197043 -41.91274294713435 9.252523765708318 -100.07918501109907 -13.147645687341573 2.5913550081690917 -1.821497170816734 -0.49965851162442404 0.10103868475354581 -8.114530821276674 0.002572258603556618 -0.04111123754681937 44.5565455860833 -0.006777673699092512 -0.0444646859395052 44.52826692575715 12.432431421530401 0.03149105254021117 -0.016812457927997026 -0.017946586536252297 0.019641003839901663 -0.02592685216870069 0.03445481347123385 -0.002798431130392006 0.0014933157206122461 11.119869409159818 -0.00717865966945383 0.010305748489027274 -0.016259950105537355 0.030770720694873178 -0.012846933122276262 -0.023434094540068482 0.03515734759367739 0.041903503533128404 4.7608817613036445 -0.024716657631150173 -0.027123947676413424 -0.037812268860563665 -0.025216910284231966 -0.030318831212744472 -0.006583311557804661 0.006678419835731004 -0.03728150469366017 -5.573968526319877 0.0022830178918130384 0.010801463424043558 -6.723141053181957 0.0070468344682658056 0.02698470315467251 -6.745396449162745 -0.013052323766437555 -0.029950897596257367 0.007819403932170094 -0.04848300625016015 0.03191715269468418 8.016457326033894 3.5094971998770577 -19.262334048767762 -0.022089025037812467 10.444441957976405 0.006625491533541476 -5.636724135948159 -15.682875967962056 3.1722227552817555 -0.027642913571409168 0.03293836630809936 -0.005267702808350633 -0.0002668735230825989 4.72829847718835 -0.028583119656476943 12.418115822051139 -8.2600390664244 6.846034479833662 -0.029729128538408194 46.382722759337156 -0.04521819337693035 -4.320096389135372 -14.711295304289912 -3.8744630963826223 -0.01564917558793153 -0.03675875193936694 -0.0007428359260843386 0.02325370207041335 -10.738655532553 0.01940901502348355 
-0.02830858115441447 0.033104909397777514 -0.01136543424667044 -0.03457557654922866 0.010086907217133383 -0.03659906139418703 -4.357866517710845 7.774511031658809 -0.5779985701157832 -0.6885732325596121 2.8931669536602986 0.40066590995384804 -1.0204429020958832 0.16546617466970734 -1.6618036232452873 -0.4964353534770185 0.2926290390530359 -1.114132382935574 0.08042046941293063 7.723299747348801 -0.338910046268622 -0.11197999031493508 -1.1565550460020662 -3.7480485204204137 0.02462642246169401 -15.141724351018137 -0.18710352640597194 3.512406388876359 -0.022947924722231058 -9.667546434404588 54.433095323015635 -14.576098183562987 30.514732154774084 30.269843609786168 10.172813508981687 99.32558015359058 25.55485782816964 -0.015263816844127125 -11.516730764780752 4.504472416529277 -0.14627949089634587 -1.594876448064895 0.006559296172129506 0.004603879907190246 -56.21537126253901 -0.023136317248704394 0.04115257911726666 -56.26418078599611 -38.72732284929971 -0.02019835400606135 -0.007385033294939294 -0.0432062133611328 0.005660245246169007 -0.007147675124711798 0.01908017641877302 0.03751352940550701 -0.04185513472432943 -36.73216556865023 0.03550394365950215 -0.042126700657736924 0.0069131106632887695 0.034414021986904776 -0.029489399369120897 0.0021779877111828203 0.022526316332872918 0.012366532888267662 -19.75171996474217 -0.008419319912949981 -0.02048276233150478 -0.049864310855768715 0.03149838430510439 0.01467693758551628 -0.0062008916785649204 0.04046463062580979 -0.038780235076379094 24.086431864222668 -0.027612884932109488 0.01549838008500716 28.87961379078018 -0.001328667495158625 -0.008910865627468768 28.828452839666493 0.014344427118642427 0.0031934334328000543 -2.9949993267441193 -0.029927441292143406 8.039749654076811 -56.49730313306808 20.984164692104297 -25.62852572520999 -37.41779700598992 8.159769140571333 -99.1442495449791 -14.058311736345425 2.12054433364485 -1.810506681839754 -0.49336514684412236 0.04520263931635403 -8.155554859481322 -0.048478504283161604 0.027626021486298277 44.60235514470378 -0.04703342297260717 -0.02724798563845338 44.570112986593074 12.44768139335787 -0.020058162075741136 0.02325402658528229 0.01303695111553968 -0.004354577061782631 0.020942665646792206 -0.0054039674767777535 0.03493957670592831 0.030849558041348688 11.107695274449506 0.010123135172245506 0.010153669290114046 -0.013792440682221165 -0.018143498591074444 -0.04455709373417542 0.0030317052434986527 -0.005077558570755806 0.018690092352092885 4.772201843415582 0.027052066914130736 0.03881492309678277 0.00968444343586495 0.018737461643412362 -0.021194954172139777 0.01788739769939339 0.019371048657427333 -0.048587994357428166 -5.588889056880669 -0.018436958986420515 -0.03552131215662693 -6.7359524170754685 -0.021064549985842954 -0.027593015350906306 -6.754135763546619 0.04506397588383781 0.02648229493809405 -0.003273620539782747 0.001831040118553222 -0.03917724047895472 8.09167229571087 3.513432676906923 -19.225348528503115 0.03540717225910253 10.37824140503671 0.0033056717491654307 -5.609453538105733 -15.615248252632592 3.2335237679798117 0.014986179604264472 0.018017156346482422 0.024523370120655676 -0.039998682739288194 4.654804268956376 0.021816274039931964 12.437629883290846 -8.231588223535788 6.8589843967053294 -0.043753779307664685 46.41349615567316 0.045192436770258644 -4.338547591848635 -14.7914154790554 -3.8640839883304468 -0.0021857289976863017 0.02103734417511249 0.022264752285481984 -0.02136323642467786 -10.72527576809497 -0.023284206903013176 
-0.030430619649401882 0.0076428042656395126 0.04759638260124018 0.018467571118980012 0.04657128797246093 -0.01586444031350215 -4.238913832970319 7.754784846399862 -0.5088525098683248 -0.6482260482521984 2.9565063755875336 0.3264314730696315 -1.012078924295335 0.16127626307932033 -1.8464359494066602 -0.4056167098181736 0.19809293911564613 -1.150847557978845 0.029476523627761035 7.874522306154182 -0.46780520742912596 -0.06767374395725921 -1.1894549529336615 -3.887988359068963 0.08259694482821014 -15.089910727559824 -0.21428162580352755 3.205326055482086 0.08566117676055919 -9.59468302151588 53.207483349482786 -15.036156388311003 32.36021396230362 30.38078253426005 10.589378507971412 97.27227659573666 25.894312320547748 0.025694828819725395 -11.713813879633843 4.49652290707516 -0.13633768988377262 -1.5711969965275685 -0.001656129910556143 -0.048146193465557145 -56.277544902655144 0.014937602540863315 0.018295549084775577 -56.221760966343254 -38.75218290464373 0.024459657338058164 -0.034569626007032804 0.0285491517428065 0.029459996632996897 0.006568922158109067 -0.0058788581779752255 0.016512523256140228 0.021241891209902383 -36.71333125231828 0.032168788455259695 0.01680048089701411 -0.02466310872144768 -0.0025287658561495997 0.012387140313068808 0.011647699661153265 0.021843399937172225 -0.0242227659010828 -19.72883680658595 0.02645204077112566 -0.02894444413003918 -0.023451086155251863 0.033954299568133686 -0.005362499566839766 0.04244542115780498 0.006107905078068381 0.04978807089205348 24.082862162483973 0.015833564751771348 -0.013656727155583711 28.872708751608982 -0.0013104870156260197 0.013110864861982822 28.85275494471647 0.009587445690769848 -0.002561225341274753 -2.6558290147663746 0.05043060367218194 7.814470210996684 -54.70247977299603 21.64867678083977 -28.151606989156555 -33.07752792314266 7.13971085812492 -97.84648484473914 -14.901018153559015 1.6799394197066644 -1.6442320924850322 -0.49129077303150626 0.09673273431869095 -8.084313818384754 0.00023769664864201659 -0.008395334855916656 44.54619704773707 -0.02725851209378006 0.02358038969296782 44.5286012817062 12.47172555801804 0.0024767635299699177 0.024355641280076213 -0.006251657056662877 -0.005206992677114172 0.03499792528140352 4.448868073808596e-05 -0.033743526869759954 -0.024312825237842187 11.108778707385541 -0.038098934974612586 -0.0021436657292412506 0.016057433188156636 0.018100477920310946 -0.00805248830320751 0.023632564842450337 0.011379394893533363 -0.00025691599069812366 4.758223400769637 -0.012345464534749303 -0.005215579365773486 0.04862916876883139 -0.03328143887178308 -0.022842841162011726 0.027486873099175385 -0.030436962681338196 -0.03298580361475116 -5.615873934565407 0.04819213739104538 -0.01602763708292801 -6.741868080585018 0.01959599157363402 -0.0365917799731595 -6.742505113567679 -0.008006476673007731 0.022748828693854858 0.014631878698585036 -0.02051668535335468 -0.036425890143687835 8.02687614831884 3.461076876428516 -19.185400095125956 -0.03746014980071028 10.370067420735353 -0.006352379779235442 -5.657135743183561 -15.673528398012472 3.15049705294228 0.044309188006076326 0.00677942197762342 -0.03105569334320467 0.023321961583810683 4.699996988134873 0.002651125388822312 12.416410651928782 -8.239653024382095 6.865061384604349 -0.0366485052196209 46.36871581371645 0.010673639097813709 -4.308300199459031 -14.776633004456524 -3.823279463791432 -0.021244182436555636 -0.024495459076475764 0.015019779078511005 0.010674673016652309 -10.742499464584588 0.01021827629222713 
